/* XPM */
static char *result[] = {
/* columns rows colors chars-per-pixel */
"32 32 2 1 ",
"  c black",
". c #F8D500",
/* pixels */
"................................",
"................................",
"..                            ..",
"..                            ..",
"..                            ..",
"..                            ..",
"..                            ..",
"..                            ..",
"..                            ..",
"..                            ..",
"..                            ..",
"..                            ..",
"..                            ..",
"..                            ..",
"..                            ..",
"..                            ..",
"..                            ..",
"..                            ..",
"..                            ..",
"..                            ..",
"..                            ..",
"..                            ..",
"..                            ..",
"..                            ..",
"..                            ..",
"..                            ..",
"..                            ..",
"..                            ..",
"..                            ..",
"..                            ..",
"................................",
"................................"
};
